<?xml version="1.0" encoding="UTF-8" standalone="no"?>
<!DOCTYPE svg PUBLIC "-//W3C//DTD SVG 1.1//EN" "http://www.w3.org/Graphics/SVG/1.1/DTD/svg11.dtd">
<svg width="100%" height="100%" viewBox="0 0 100 100" version="1.1" xmlns="http://www.w3.org/2000/svg" xmlns:xlink="http://www.w3.org/1999/xlink" xml:space="preserve" xmlns:serif="http://www.serif.com/" style="fill-rule:evenodd;clip-rule:evenodd;stroke-linejoin:round;stroke-miterlimit:2;">
    <g id="Vector" transform="matrix(1,0,0,1,7.65895,0.06765)">
        <path d="M0,67.388C0,43.437 16.342,26.116 39.572,26.116C41.733,26.116 43.759,26.252 45.65,26.658C45.92,10.555 52.403,0 64.693,0C76.984,0 82.521,10.284 82.521,26.116C82.521,41.949 78.469,57.646 71.446,70.501C74.823,76.996 79.145,83.897 84.682,91.34L72.122,99.865C68.475,94.181 65.234,88.769 62.397,83.626C53.618,93.64 42.544,99.865 30.118,99.865C12.155,99.865 0,87.28 0,67.388ZM30.388,86.198C39.978,86.198 49.027,80.514 55.914,70.771C50.917,59.81 47.946,49.932 46.595,40.325C44.299,40.054 41.868,39.783 39.167,39.783C24.716,39.783 16.612,51.421 16.612,67.118C16.612,79.296 21.744,86.198 30.388,86.198ZM64.153,53.586C66.719,45.467 68.205,36.13 68.205,25.981C68.205,16.915 66.719,13.667 64.153,13.667C61.587,13.667 59.966,17.727 59.966,27.74C59.966,35.724 61.047,44.249 64.153,53.586Z" style="fill:rgb(255,103,77);fill-rule:nonzero;"/>
    </g>
</svg>
